<?xml version="1.0" encoding="UTF-8"?><svg id="b" xmlns="http://www.w3.org/2000/svg" viewBox="0 0 293.85 111.1"><defs><style>.c{fill:#777474;}.d{fill:#0578a7;}</style></defs><path class="c" d="M72.47,36.43c-.17,0-.33,0-.5-.01-4.08-1.91-15.11-6.35-30.38-6.81-.15,0-.31,0-.46-.01-.7-.02-1.41-.03-2.13-.03-17.04,0-32.84,7.25-33.81,7.69.89-.53,15.59-9.1,33.91-9.1s29.84,5.99,33.37,8.27Z"/><path class="c" d="M72.54,42.07c-.15,0-.32,0-.47,0-4.01-1.89-15.15-6.42-30.59-6.86-.14,0-.29-.01-.44-.02-.67-.01-1.35-.02-2.04-.02-17.04,0-32.84,7.25-33.81,7.69.89-.53,15.59-9.1,33.91-9.1s30,6.08,33.44,8.32Z"/><path class="c" d="M72.56,47.71c-.15,0-.31,0-.46,0-3.99-1.88-15.14-6.42-30.61-6.86-.14,0-.29-.01-.44-.02-.67-.01-1.35-.02-2.04-.02-17.04,0-32.84,7.24-33.81,7.69.89-.53,15.59-9.1,33.91-9.1s30.02,6.09,33.46,8.32Z"/><path class="c" d="M72.56,53.36c-.15,0-.31,0-.46,0-3.99-1.88-15.14-6.42-30.61-6.86-.14,0-.29-.01-.44-.02-.67-.01-1.35-.02-2.04-.02-17.04,0-32.84,7.24-33.81,7.69.89-.53,15.59-9.1,33.91-9.1s30.02,6.09,33.46,8.32Z"/><path class="c" d="M72.56,59c-.15,0-.31,0-.46,0-3.99-1.88-15.14-6.42-30.61-6.86-.14,0-.29-.01-.44-.02-.67-.01-1.35-.02-2.04-.02-17.04,0-32.84,7.24-33.81,7.69.89-.53,15.59-9.1,33.91-9.1s30.02,6.09,33.46,8.32Z"/><path class="c" d="M72.56,64.64c-.15,0-.31,0-.46,0-3.99-1.88-15.14-6.42-30.61-6.86-.14,0-.29-.01-.44-.02-.67-.01-1.35-.02-2.04-.02-17.04,0-32.84,7.24-33.81,7.69.89-.53,15.59-9.1,33.91-9.1s30.02,6.09,33.46,8.32Z"/><path class="c" d="M72.56,70.29c-.15,0-.31,0-.46,0-3.99-1.88-15.14-6.42-30.61-6.86-.14,0-.29-.01-.44-.02-.67-.01-1.35-.02-2.04-.02-17.04,0-32.84,7.24-33.81,7.69.89-.53,15.59-9.1,33.91-9.1s30.02,6.09,33.46,8.32Z"/><path class="c" d="M72.56,75.93c-.15,0-.31,0-.46,0-3.99-1.88-15.14-6.42-30.61-6.86-.14,0-.29-.01-.44-.02-.67-.01-1.35-.02-2.04-.02-17.04,0-32.84,7.24-33.81,7.69.89-.53,15.59-9.1,33.91-9.1s30.02,6.09,33.46,8.32Z"/><path class="c" d="M72.47,81.52c-.17,0-.33,0-.5-.01-4.08-1.9-15.1-6.33-30.36-6.8-.15-.01-.31-.01-.47-.02-.71-.02-1.42-.03-2.15-.03-17.04,0-32.84,7.24-33.81,7.69.89-.53,15.59-9.1,33.91-9.1s29.84,5.99,33.37,8.27Z"/><path class="d" d="M108.09,73.84c-.82.64-12.29,9.1-34.56,9.1-15.28,0-28.05-5.97-32.37-8.25.16,0,.32,0,.47.02,4.73,1.95,17.04,6.49,30.36,6.8.17,0,.33,0,.5.01.32,0,.64,0,.95,0,20.33,0,33.85-7.24,34.66-7.69Z"/><path class="d" d="M108.09,68.25c-.82.64-12.29,9.1-34.56,9.1-15.4,0-28.25-6.06-32.48-8.3.15,0,.3.01.44.02,4.65,1.93,17.12,6.57,30.61,6.86.15,0,.31,0,.46,0,.29,0,.58,0,.87,0,20.33,0,33.85-7.24,34.66-7.69Z"/><path class="d" d="M108.09,62.61c-.82.64-12.29,9.1-34.56,9.1-15.4,0-28.25-6.06-32.48-8.3.15,0,.3.01.44.02,4.65,1.93,17.12,6.57,30.61,6.86.15,0,.31,0,.46,0,.29,0,.58,0,.87,0,20.33,0,33.85-7.24,34.66-7.69Z"/><path class="d" d="M108.09,56.96c-.82.64-12.29,9.1-34.56,9.1-15.4,0-28.25-6.06-32.48-8.3.15,0,.3.01.44.02,4.65,1.93,17.12,6.57,30.61,6.86.15,0,.31,0,.46,0,.29,0,.58,0,.87,0,20.33,0,33.85-7.24,34.66-7.69Z"/><path class="d" d="M108.09,51.32c-.82.64-12.29,9.1-34.56,9.1-15.4,0-28.25-6.06-32.48-8.3.15,0,.3.01.44.02,4.65,1.93,17.12,6.57,30.61,6.86.15,0,.31,0,.46,0,.29,0,.58,0,.87,0,20.33,0,33.85-7.24,34.66-7.69Z"/><path class="d" d="M108.09,45.68c-.82.64-12.29,9.1-34.56,9.1-15.4,0-28.25-6.06-32.48-8.3.15,0,.3.01.44.02,4.65,1.93,17.12,6.57,30.61,6.86.15,0,.31,0,.46,0,.29,0,.58,0,.87,0,20.33,0,33.85-7.24,34.66-7.69Z"/><path class="d" d="M108.09,40.03c-.82.64-12.29,9.1-34.56,9.1-15.4,0-28.25-6.06-32.48-8.3.15,0,.3.01.44.02,4.65,1.93,17.12,6.57,30.61,6.86.15,0,.31,0,.46,0,.29,0,.58,0,.87,0,20.33,0,33.85-7.24,34.66-7.69Z"/><path class="d" d="M108.09,34.39c-.82.64-12.29,9.1-34.56,9.1-15.4,0-28.25-6.06-32.48-8.3.15,0,.3.01.44.02,4.64,1.93,17.11,6.56,30.59,6.86.15,0,.32,0,.47,0,.3,0,.59,0,.88,0,20.33,0,33.85-7.24,34.66-7.69Z"/><path class="d" d="M108.09,28.75c-.82.64-12.29,9.1-34.56,9.1-15.3,0-28.08-5.98-32.39-8.25.15,0,.31,0,.46.01,4.72,1.95,17.04,6.49,30.38,6.81.17,0,.33,0,.5.01.32,0,.64,0,.95,0,20.33,0,33.85-7.24,34.66-7.69Z"/><path class="d" d="M127.14,28.74l10.47,22.59h-3.81l-3.4-7.36h-9.53l-3.51,7.36h-1.87l10.72-22.59h.94ZM121.53,42.53h8.19l-4.04-8.74-4.15,8.74Z"/><path class="d" d="M140.46,29.23h3.83l8.64,16.95h.18l8.48-16.95h3.76v22.09h-3.76v-18.1h-.11l-9.12,18.1h-.78l-9.21-17.97h-.25v17.97h-1.66v-22.09Z"/><path class="d" d="M186.38,29.23v1.43h-11.72v7.91h7.84v1.43h-7.84v9.9h11.72v1.43h-15.46v-22.09h15.46Z"/><path class="d" d="M190.53,29.23h7.71c1.34,0,2.51.14,3.51.43,1,.29,1.84.68,2.51,1.19.67.51,1.17,1.11,1.52,1.82.34.71.51,1.48.51,2.31,0,.7-.13,1.34-.39,1.94-.26.6-.63,1.14-1.11,1.62-.48.48-1.05.9-1.72,1.25-.67.35-1.41.62-2.21.82l8.09,10.72h-4.33l-7.73-10.38h-2.62v10.38h-3.74v-22.09ZM194.27,39.84h2.17c.84,0,1.61-.11,2.33-.33.71-.22,1.33-.53,1.85-.94.52-.41.92-.9,1.21-1.48.29-.58.43-1.23.43-1.96,0-.66-.11-1.27-.34-1.82-.23-.55-.55-1.03-.97-1.43-.42-.4-.92-.71-1.49-.93-.58-.22-1.21-.33-1.89-.33h-3.28v9.22Z"/><path class="d" d="M211.74,29.23h3.74v22.09h-3.74v-22.09Z"/><path class="d" d="M224.48,40.36c0,1.54.24,2.93.71,4.16.47,1.23,1.12,2.27,1.94,3.12.82.85,1.79,1.5,2.91,1.95,1.12.45,2.33.68,3.64.68.77,0,1.53-.15,2.26-.45.73-.3,1.41-.69,2.03-1.18.62-.48,1.18-1.03,1.66-1.63.49-.6.89-1.22,1.21-1.84l1.57,1c-.46.74-1,1.45-1.62,2.14-.62.69-1.35,1.29-2.17,1.81-.82.52-1.75.94-2.78,1.26-1.03.32-2.19.48-3.47.48-1.84,0-3.52-.31-5.03-.92s-2.81-1.44-3.88-2.49c-1.07-1.05-1.9-2.27-2.49-3.66-.59-1.39-.88-2.86-.88-4.42s.3-3.04.9-4.44c.6-1.4,1.45-2.64,2.54-3.7,1.09-1.07,2.41-1.91,3.93-2.54,1.53-.63,3.22-.94,5.07-.94,1.19,0,2.28.16,3.27.48,1,.32,1.9.74,2.72,1.26.82.52,1.55,1.13,2.2,1.81.65.69,1.2,1.4,1.65,2.14l-1.62,1.07c-.94-1.8-1.98-3.11-3.12-3.93-1.14-.82-2.46-1.23-3.97-1.23-1.28,0-2.48.23-3.6.69-1.13.46-2.1,1.13-2.93,1.99-.83.87-1.48,1.92-1.96,3.16-.48,1.24-.72,2.64-.72,4.19Z"/><path class="d" d="M256.34,28.74l10.47,22.59h-3.81l-3.4-7.36h-9.53l-3.51,7.36h-1.87l10.72-22.59h.93ZM250.73,42.53h8.19l-4.04-8.74-4.15,8.74Z"/><path class="d" d="M269.66,29.23h2.1l14.57,16.15h.16v-16.15h1.64v22.61h-.87l-15.78-17.97h-.14v17.45h-1.69v-22.09Z"/><rect class="c" x="115.49" y="58.03" width="172.79" height="1.85"/><path class="d" d="M120.38,77.88c.33,0,.65-.04.97-.13.32-.08.61-.21.86-.37.25-.16.45-.37.61-.6.15-.24.23-.51.23-.83,0-.38-.1-.71-.31-1-.21-.29-.48-.56-.82-.81-.34-.25-.73-.48-1.16-.69-.44-.21-.88-.43-1.34-.65-.46-.22-.91-.45-1.34-.68-.44-.24-.82-.5-1.16-.79s-.61-.62-.82-.98c-.21-.36-.31-.78-.31-1.25s.1-.91.29-1.3c.19-.4.47-.75.84-1.04.37-.29.82-.53,1.35-.69.53-.17,1.15-.25,1.85-.25,1.26,0,2.25.24,2.98.73.73.49,1.25,1.19,1.58,2.12l-1.14.48c-.26-.76-.68-1.37-1.25-1.83-.57-.47-1.33-.7-2.27-.7-.42,0-.78.06-1.1.16-.31.11-.57.25-.78.42-.21.17-.37.37-.47.59-.1.22-.16.45-.16.67,0,.32.11.61.32.88.21.27.5.52.85.76.35.24.76.47,1.2.69.45.22.91.45,1.37.67.47.23.93.47,1.37.72.45.25.85.52,1.2.81.35.29.64.61.85.96.21.35.32.74.32,1.17,0,.49-.1.95-.3,1.37-.2.43-.5.8-.9,1.12-.4.32-.9.57-1.49.76-.59.18-1.29.28-2.07.28-1.27,0-2.28-.25-3.03-.76-.75-.51-1.31-1.22-1.66-2.12l1.2-.45c.28.81.74,1.43,1.39,1.88.64.45,1.4.67,2.27.67Z"/><path class="d" d="M127.02,68.89h2.04v1.94c.2-.24.42-.49.67-.74.25-.25.53-.48.84-.69.31-.21.64-.37,1.01-.5.36-.13.76-.2,1.2-.2.61,0,1.16.12,1.65.35.49.24.92.55,1.27.96.35.4.62.87.81,1.41.19.54.29,1.11.29,1.73,0,.78-.12,1.5-.35,2.17-.23.66-.57,1.24-1,1.72-.44.48-.96.86-1.58,1.13-.62.27-1.31.4-2.08.4-.56,0-1.05-.05-1.47-.16-.42-.11-.83-.29-1.25-.53v4.49h-2.04v-13.47ZM129.06,75.81c0,.29.07.55.2.8.13.25.32.47.56.65.24.19.53.34.86.45.34.11.7.16,1.1.16s.74-.09,1.07-.27c.34-.18.63-.43.88-.76.25-.33.45-.72.59-1.18.15-.46.22-.96.22-1.52,0-.7-.07-1.31-.2-1.83s-.32-.96-.56-1.3c-.24-.35-.52-.61-.85-.78-.33-.17-.68-.26-1.06-.26-.3,0-.58.04-.85.13-.27.08-.52.2-.76.34-.24.14-.46.31-.66.49-.2.18-.38.38-.54.58v4.3Z"/><path class="d" d="M143.23,78.57c-.69,0-1.34-.12-1.95-.36-.61-.24-1.14-.57-1.6-.98-.46-.42-.82-.9-1.08-1.46-.26-.56-.39-1.15-.39-1.78,0-.76.12-1.46.36-2.1.24-.65.58-1.21,1.02-1.68.44-.47.97-.84,1.59-1.1.62-.27,1.31-.4,2.07-.4.67,0,1.29.11,1.84.33.56.22,1.04.51,1.44.88.4.37.72.79.94,1.27.22.48.33.98.33,1.51h-7.63c0,.64.09,1.23.27,1.77.18.54.43,1.01.75,1.41.32.39.7.7,1.14.93.44.22.92.33,1.45.33.44,0,.87-.06,1.27-.2.4-.13.77-.3,1.1-.52.33-.22.61-.47.84-.74.23-.28.4-.56.5-.86l.59.24c-.15.49-.38.94-.71,1.37-.33.42-.71.8-1.14,1.12-.44.32-.91.57-1.43.76-.52.18-1.04.28-1.56.28ZM145.25,71.94c0-.36-.07-.69-.2-1-.14-.31-.32-.57-.57-.8-.24-.23-.52-.41-.84-.54-.32-.13-.66-.2-1.03-.2-.31,0-.6.06-.88.19-.28.13-.53.3-.75.53-.22.23-.4.49-.54.8-.15.31-.23.64-.26,1h5.08Z"/><path class="d" d="M154.32,78.57c-.67,0-1.3-.12-1.88-.37-.58-.24-1.1-.58-1.53-1-.44-.42-.78-.92-1.03-1.49-.25-.57-.38-1.18-.38-1.83,0-.71.14-1.39.41-2.02s.66-1.18,1.14-1.64c.48-.47,1.04-.84,1.69-1.11.64-.27,1.33-.41,2.07-.41.57,0,1.1.06,1.59.18s.9.28,1.25.48c.35.2.62.44.82.71.2.27.29.57.29.89,0,.14-.04.28-.12.41-.08.13-.18.24-.31.33-.13.09-.28.17-.44.22-.16.05-.32.08-.48.08-.37,0-.66-.11-.88-.33-.21-.22-.32-.46-.32-.72,0-.22-.03-.42-.08-.61-.05-.19-.14-.35-.27-.49-.13-.14-.3-.25-.52-.33-.22-.08-.51-.12-.85-.12-.46,0-.88.09-1.25.26-.37.17-.68.41-.93.71-.25.3-.44.65-.58,1.04-.14.39-.2.81-.2,1.26,0,.6.08,1.18.25,1.72.17.54.41,1.01.72,1.42.31.4.69.72,1.13.96.44.24.93.36,1.46.36.47,0,.88-.07,1.23-.21.35-.14.65-.33.91-.56.26-.24.48-.51.67-.82.19-.31.35-.64.5-.98l.61.23c-.34,1.2-.92,2.13-1.72,2.79-.8.66-1.79.99-2.97.99Z"/><path class="d" d="M161.99,64.04c.16,0,.32.03.46.08.14.05.26.12.37.21.1.09.19.19.25.3.06.11.1.23.1.36s-.03.25-.1.37c-.06.12-.15.22-.25.3-.1.08-.23.15-.37.2-.14.05-.29.08-.46.08-.32,0-.59-.09-.82-.28-.23-.18-.34-.41-.34-.67,0-.13.03-.25.1-.36.06-.11.15-.21.25-.3.1-.09.23-.16.37-.21.14-.05.29-.08.44-.08ZM161,69.25l1.43-.54h.6v9.66h-2.03v-9.12Z"/><path class="d" d="M173.03,78.37h-2.04v-1.3c-.24.17-.47.34-.7.52-.23.18-.48.34-.76.49-.27.14-.57.26-.9.35-.33.09-.71.14-1.14.14-.4,0-.76-.06-1.08-.18-.32-.12-.6-.29-.82-.5-.23-.21-.4-.46-.52-.74-.12-.29-.18-.6-.18-.93,0-.41.09-.78.27-1.1.18-.32.42-.62.71-.88.3-.26.65-.49,1.05-.69.4-.2.83-.38,1.28-.54.45-.16.92-.3,1.4-.42.48-.12.95-.24,1.4-.35v-.59c0-.44-.05-.8-.14-1.1-.09-.29-.22-.53-.39-.71-.17-.18-.38-.31-.63-.39-.24-.08-.52-.12-.82-.12-.34,0-.63.04-.84.13-.22.08-.39.19-.51.33s-.21.29-.25.46c-.05.17-.07.35-.07.52s-.01.33-.04.48c-.03.15-.08.28-.16.4-.08.11-.18.21-.31.28-.13.07-.3.11-.5.11-.32,0-.57-.11-.77-.32-.2-.21-.29-.47-.29-.79s.11-.6.33-.88c.22-.27.52-.51.9-.71.38-.2.81-.35,1.31-.47.5-.11,1.02-.17,1.58-.17.67,0,1.24.06,1.7.18.46.12.84.29,1.12.51s.49.49.62.79c.13.31.19.65.19,1.03v7.16ZM170.99,72.85c-.44.13-.89.28-1.37.47-.48.19-.92.41-1.32.65-.4.24-.73.51-.99.8-.26.29-.39.6-.39.94,0,.24.04.46.14.66.09.21.21.39.37.54.15.16.33.28.53.37.2.09.41.14.63.14.45,0,.87-.1,1.25-.31.38-.21.77-.45,1.17-.72v-3.54Z"/><path class="d" d="M177.87,78.37h-2.04v-13.78l1.46-.54h.58v14.33Z"/><path class="d" d="M181.43,64.04c.16,0,.32.03.46.08.14.05.26.12.37.21.1.09.19.19.25.3.06.11.1.23.1.36s-.03.25-.1.37c-.06.12-.15.22-.25.3-.1.08-.23.15-.37.2-.14.05-.29.08-.46.08-.32,0-.59-.09-.82-.28-.23-.18-.34-.41-.34-.67,0-.13.03-.25.1-.36.06-.11.15-.21.25-.3.1-.09.23-.16.37-.21.14-.05.29-.08.44-.08ZM180.43,69.25l1.43-.54h.6v9.66h-2.03v-9.12Z"/><path class="d" d="M183.85,77.88l7.36-8.19h-7.36v-.79h10.26v.4l-7.54,8.28h7.54v.79h-10.26v-.49Z"/><path class="d" d="M199.95,78.57c-.69,0-1.34-.12-1.95-.36-.61-.24-1.14-.57-1.6-.98-.46-.42-.82-.9-1.08-1.46-.26-.56-.39-1.15-.39-1.78,0-.76.12-1.46.36-2.1.24-.65.58-1.21,1.02-1.68.44-.47.97-.84,1.59-1.1.62-.27,1.31-.4,2.07-.4.67,0,1.29.11,1.84.33.56.22,1.04.51,1.44.88.4.37.72.79.94,1.27.22.48.33.98.33,1.51h-7.63c0,.64.09,1.23.27,1.77.18.54.43,1.01.75,1.41.32.39.7.7,1.14.93.44.22.92.33,1.45.33.44,0,.87-.06,1.27-.2.4-.13.77-.3,1.1-.52.33-.22.61-.47.84-.74.23-.28.4-.56.5-.86l.59.24c-.15.49-.38.94-.71,1.37-.33.42-.71.8-1.14,1.12-.44.32-.91.57-1.43.76-.52.18-1.04.28-1.56.28ZM201.97,71.94c0-.36-.07-.69-.2-1-.14-.31-.32-.57-.57-.8-.24-.23-.52-.41-.84-.54-.32-.13-.66-.2-1.03-.2-.31,0-.6.06-.88.19-.28.13-.53.3-.75.53-.22.23-.4.49-.54.8-.15.31-.23.64-.26,1h5.08Z"/><path class="d" d="M213.92,77.45c-.24.18-.49.33-.76.47-.27.14-.56.26-.85.35-.29.1-.59.17-.9.22-.3.05-.6.08-.88.08-.6,0-1.16-.13-1.69-.38-.53-.26-.98-.6-1.37-1.05-.39-.44-.7-.95-.93-1.54-.23-.58-.34-1.2-.34-1.85s.14-1.26.42-1.87c.28-.61.67-1.15,1.16-1.62.49-.47,1.06-.85,1.72-1.13.65-.29,1.35-.43,2.08-.43.5,0,.93.08,1.31.24.37.16.72.37,1.03.64v-5l1.43-.54h.6v14.53h-2.03v-1.12ZM213.92,71.91c0-.37-.07-.71-.22-1.01-.15-.31-.34-.57-.59-.79-.24-.22-.51-.39-.82-.51-.3-.12-.61-.18-.92-.18-.41,0-.79.09-1.14.28-.35.18-.66.44-.93.78-.26.34-.47.74-.62,1.2-.15.47-.22.98-.22,1.54,0,.6.08,1.17.25,1.7.17.52.4.98.69,1.37.29.39.63.7,1.02.93.39.23.81.34,1.25.34s.86-.1,1.26-.29c.4-.19.73-.42.99-.68v-4.67Z"/><path class="d" d="M233.41,66.08v.79h-4.8v11.49h-2.23v-11.49h-4.8v-.79h11.84Z"/><path class="d" d="M238.13,78.57c-.69,0-1.34-.12-1.95-.36-.61-.24-1.14-.57-1.6-.98-.46-.42-.82-.9-1.08-1.46-.26-.56-.39-1.15-.39-1.78,0-.76.12-1.46.36-2.1.24-.65.58-1.21,1.02-1.68.44-.47.97-.84,1.59-1.1.62-.27,1.31-.4,2.07-.4.67,0,1.29.11,1.84.33.56.22,1.04.51,1.44.88.4.37.72.79.94,1.27.22.48.33.98.33,1.51h-7.63c0,.64.09,1.23.27,1.77.18.54.43,1.01.75,1.41.32.39.7.7,1.14.93.44.22.92.33,1.45.33.44,0,.87-.06,1.27-.2.4-.13.77-.3,1.1-.52.33-.22.61-.47.84-.74.23-.28.4-.56.5-.86l.59.24c-.15.49-.38.94-.71,1.37-.33.42-.71.8-1.14,1.12-.44.32-.91.57-1.43.76-.52.18-1.04.28-1.56.28ZM240.16,71.94c0-.36-.07-.69-.2-1-.14-.31-.32-.57-.57-.8-.24-.23-.52-.41-.84-.54-.32-.13-.66-.2-1.03-.2-.31,0-.6.06-.88.19-.28.13-.53.3-.75.53-.22.23-.4.49-.54.8-.15.31-.23.64-.26,1h5.08Z"/><path class="d" d="M244.38,78.37h-1.12l4.29-4.84-3.62-4.62h2.4l2.5,3.18,2.8-3.18h1.12l-3.4,3.83,4.4,5.63h-2.4l-3.27-4.18-3.7,4.18Z"/><path class="d" d="M259.78,77.16c-.27.44-.64.78-1.09,1.03-.45.25-1.01.38-1.66.38-.69,0-1.2-.2-1.52-.61-.32-.41-.48-.94-.48-1.59v-6.68h-1.78v-.47c.57,0,1.04-.09,1.42-.28.37-.19.68-.45.91-.77.24-.33.42-.71.55-1.14.13-.43.25-.89.35-1.37h.59v3.24h2.29v.79h-2.29v6.68c0,.29.1.53.31.72.21.2.47.3.79.3.23,0,.43-.05.62-.16.19-.1.35-.23.5-.38l.5.31Z"/><path class="d" d="M262.09,64.04c.16,0,.32.03.46.08.14.05.26.12.37.21.1.09.19.19.25.3.06.11.1.23.1.36s-.03.25-.1.37c-.06.12-.15.22-.25.3-.1.08-.23.15-.37.2-.14.05-.29.08-.46.08-.32,0-.59-.09-.82-.28-.23-.18-.34-.41-.34-.67,0-.13.03-.25.1-.36.06-.11.15-.21.25-.3.1-.09.23-.16.37-.21.14-.05.29-.08.44-.08ZM261.1,69.25l1.43-.54h.6v9.66h-2.03v-9.12Z"/><path class="d" d="M267.73,78.37h-2.04v-13.78l1.46-.54h.58v14.33Z"/><path class="d" d="M274.74,78.57c-.69,0-1.34-.12-1.95-.36-.61-.24-1.14-.57-1.6-.98-.46-.42-.82-.9-1.08-1.46-.26-.56-.39-1.15-.39-1.78,0-.76.12-1.46.36-2.1.24-.65.58-1.21,1.02-1.68.44-.47.97-.84,1.59-1.1.62-.27,1.31-.4,2.07-.4.67,0,1.29.11,1.84.33.56.22,1.04.51,1.44.88.4.37.72.79.94,1.27.22.48.33.98.33,1.51h-7.63c0,.64.09,1.23.27,1.77.18.54.43,1.01.75,1.41.32.39.7.7,1.14.93.44.22.92.33,1.45.33.44,0,.87-.06,1.27-.2.4-.13.77-.3,1.1-.52.33-.22.61-.47.84-.74.23-.28.4-.56.5-.86l.59.24c-.15.49-.38.94-.71,1.37-.33.42-.71.8-1.14,1.12-.44.32-.91.57-1.43.76-.52.18-1.04.28-1.56.28ZM276.76,71.94c0-.36-.07-.69-.2-1-.14-.31-.32-.57-.57-.8-.24-.23-.52-.41-.84-.54-.32-.13-.66-.2-1.03-.2-.31,0-.6.06-.88.19-.28.13-.53.3-.75.53-.22.23-.4.49-.54.8-.15.31-.23.64-.26,1h5.08Z"/><path class="d" d="M284.75,77.92c.27,0,.53-.04.76-.12.24-.08.44-.18.61-.31.17-.13.3-.28.39-.45.1-.17.14-.34.14-.52,0-.29-.08-.55-.24-.76-.16-.21-.37-.41-.62-.57-.25-.17-.54-.32-.87-.47-.33-.15-.66-.29-1.01-.44s-.68-.31-1.01-.48c-.33-.17-.62-.37-.87-.6-.25-.23-.46-.49-.62-.79-.16-.3-.24-.65-.24-1.05,0-.38.09-.73.26-1.05.17-.32.42-.6.73-.84.31-.24.68-.42,1.11-.55.43-.13.89-.2,1.4-.2.34,0,.65.02.95.06.29.04.59.13.87.25.29.13.57.3.85.54s.58.53.88.9l-.75.62c-.39-.58-.82-1.01-1.3-1.3-.48-.29-.99-.43-1.53-.43-.29,0-.56.03-.8.1-.24.07-.45.16-.62.27-.17.11-.31.25-.4.4-.1.15-.14.31-.14.49,0,.38.15.69.44.94.29.25.66.48,1.1.68.44.2.92.4,1.44.59.52.19,1,.42,1.44.67.44.25.81.55,1.1.91.29.35.44.79.44,1.32,0,.4-.08.78-.24,1.13-.16.35-.4.65-.73.91-.33.26-.74.46-1.23.6-.49.15-1.06.22-1.71.22-.3,0-.61-.02-.93-.06-.32-.04-.64-.13-.95-.25-.32-.13-.64-.3-.96-.54-.32-.23-.64-.53-.95-.9l.83-.69c.25.32.48.59.71.82.23.23.46.41.69.55.24.14.48.25.74.32.25.07.53.1.82.1Z"/></svg>